<svg width="15" height="15" viewBox="0 0 15 15" fill="none" xmlns="http://www.w3.org/2000/svg">
<path d="M2.83334 8.41666C2.72295 8.41704 2.61472 8.38609 2.52123 8.3274C2.42773 8.26872 2.35281 8.18471 2.30516 8.08513C2.25751 7.98556 2.23909 7.87451 2.25205 7.76488C2.265 7.65526 2.30879 7.55156 2.37834 7.46583L8.15334 1.51583C8.19666 1.46583 8.25569 1.43204 8.32074 1.42001C8.3858 1.40798 8.45301 1.41842 8.51135 1.44963C8.56968 1.48083 8.61568 1.53094 8.64178 1.59173C8.66789 1.65252 8.67255 1.72038 8.65501 1.78417L7.53501 5.29583C7.50198 5.38422 7.49089 5.4793 7.50268 5.57292C7.51448 5.66654 7.54881 5.7559 7.60272 5.83333C7.65664 5.91077 7.72854 5.97397 7.81225 6.01751C7.89596 6.06105 7.98898 6.08364 8.08334 6.08333H12.1667C12.2771 6.08296 12.3853 6.11391 12.4788 6.17259C12.5723 6.23128 12.6472 6.31529 12.6949 6.41487C12.7425 6.51444 12.7609 6.62549 12.748 6.73511C12.735 6.84474 12.6912 6.94844 12.6217 7.03417L6.84667 12.9842C6.80335 13.0342 6.74432 13.068 6.67927 13.08C6.61421 13.092 6.547 13.0816 6.48866 13.0504C6.43033 13.0192 6.38433 12.9691 6.35823 12.9083C6.33212 12.8475 6.32746 12.7796 6.34501 12.7158L7.46501 9.20417C7.49803 9.11578 7.50912 9.02069 7.49733 8.92708C7.48553 8.83346 7.4512 8.7441 7.39729 8.66667C7.34337 8.58923 7.27147 8.52603 7.18776 8.48249C7.10405 8.43894 7.01103 8.41636 6.91667 8.41666H2.83334Z" stroke="#0A0A0A" stroke-width="1.16667" stroke-linecap="round" stroke-linejoin="round"/>
</svg>
