<svg width="18" height="18" viewBox="0 0 18 18" fill="none" xmlns="http://www.w3.org/2000/svg">
<path d="M10.2083 12.3958H3.64584" stroke="#0A0A0A" stroke-width="1.45833" stroke-linecap="round" stroke-linejoin="round"/>
<path d="M13.8542 5.10417H7.29166" stroke="#0A0A0A" stroke-width="1.45833" stroke-linecap="round" stroke-linejoin="round"/>
<path d="M12.3958 14.5833C13.604 14.5833 14.5833 13.604 14.5833 12.3958C14.5833 11.1877 13.604 10.2083 12.3958 10.2083C11.1877 10.2083 10.2083 11.1877 10.2083 12.3958C10.2083 13.604 11.1877 14.5833 12.3958 14.5833Z" stroke="#0A0A0A" stroke-width="1.45833" stroke-linecap="round" stroke-linejoin="round"/>
<path d="M5.10416 7.29166C6.31228 7.29166 7.29166 6.31229 7.29166 5.10416C7.29166 3.89604 6.31228 2.91666 5.10416 2.91666C3.89603 2.91666 2.91666 3.89604 2.91666 5.10416C2.91666 6.31229 3.89603 7.29166 5.10416 7.29166Z" stroke="#0A0A0A" stroke-width="1.45833" stroke-linecap="round" stroke-linejoin="round"/>
</svg>
