<svg width="16" height="16" viewBox="0 0 16 16" fill="none" xmlns="http://www.w3.org/2000/svg">
<g id="Group 42">
<g id="Group 41">
<g id="arrow_warm_up">
<mask id="mask0_12_116" style="mask-type:alpha" maskUnits="userSpaceOnUse" x="0" y="0" width="16" height="16">
<rect id="Bounding box" width="16" height="16" rx="8" fill="#D9D9D9"/>
</mask>
<g mask="url(#mask0_12_116)">
<path id="arrow_warm_up_2" d="M7.33337 6.94071C7.33337 5.8098 5.96748 5.24184 5.16563 6.03934L4.73401 6.46861C4.47572 6.7255 4.05826 6.72493 3.80068 6.46734C3.54259 6.20926 3.54259 5.79082 3.80068 5.53274L5.66671 3.66671C6.95537 2.37804 9.04471 2.37804 10.3334 3.66671L12.2 5.53336C12.4584 5.79176 12.4603 6.21015 12.2042 6.47084C11.9448 6.73481 11.52 6.73668 11.2584 6.47502L10.8295 6.0462C10.0314 5.24807 8.66671 5.81334 8.66671 6.94208V8.00004C8.66671 8.36823 8.36823 8.66671 8.00004 8.66671C7.63185 8.66671 7.33337 8.36823 7.33337 8.00004V6.94071ZM8.00004 12C7.63185 12 7.33337 11.7016 7.33337 11.3334V10.6667C7.33337 10.2985 7.63185 10 8.00004 10C8.36823 10 8.66671 10.2985 8.66671 10.6667V11.3334C8.66671 11.7016 8.36823 12 8.00004 12ZM8.00004 14.6667C7.63185 14.6667 7.33337 14.3682 7.33337 14C7.33337 13.6319 7.63185 13.3334 8.00004 13.3334C8.36823 13.3334 8.66671 13.6319 8.66671 14C8.66671 14.3682 8.36823 14.6667 8.00004 14.6667Z" fill="white"/>
</g>
</g>
</g>
</g>
</svg>
